<?xml version="1.0" encoding="UTF-8"?>
<svg version="1.1" xmlns="http://www.w3.org/2000/svg" width="308" height="231">
<path d="M0 0 C76.89 0 153.78 0 233 0 C229.69617873 5.94687829 226.55051088 11.2697027 222.5 16.625 C221.57249344 17.86687152 220.64540801 19.10905768 219.71875 20.3515625 C219.26371094 20.95000977 218.80867187 21.54845703 218.33984375 22.16503906 C217.43334887 23.40651419 216.57167324 24.68176462 215.75390625 25.98339844 C215.14869141 26.93134277 215.14869141 26.93134277 214.53125 27.8984375 C214.01401367 28.75574463 214.01401367 28.75574463 213.48632812 29.63037109 C210.06162267 32.78618542 204.11816052 32.13177169 199.69778442 32.15821838 C198.45265579 32.1680072 197.20752716 32.17779602 195.92466736 32.18788147 C194.5580143 32.19378444 193.19136084 32.19959496 191.82470703 32.20532227 C190.37556179 32.21490963 188.92641929 32.22492021 187.47727966 32.23532104 C183.55422399 32.26228317 179.63115639 32.28333961 175.70805979 32.30332303 C171.60408784 32.3252364 167.50015227 32.35259884 163.39620972 32.37937927 C155.62970785 32.42923396 147.8631857 32.4741995 140.09664428 32.51740164 C131.25263488 32.56683586 122.40866201 32.621731 113.56468797 32.67708123 C95.37649258 32.79079033 77.1882627 32.89765336 59 33 C60.5879313 36.14370835 60.5879313 36.14370835 62.8703022 36.38476086 C64.01793447 36.3916743 64.01793447 36.3916743 65.18875122 36.39872742 C66.50548325 36.41753464 66.50548325 36.41753464 67.84881592 36.4367218 C69.2967453 36.43456917 69.2967453 36.43456917 70.77392578 36.43237305 C71.78858917 36.4425647 72.80325256 36.45275635 73.84866333 36.46325684 C77.21426813 36.49353597 80.57958904 36.50267561 83.9453125 36.51171875 C86.27416949 36.52855436 88.60301732 36.54670306 90.93185425 36.56611633 C97.07046653 36.61374376 103.20904173 36.64347066 109.34777832 36.66955566 C115.60822883 36.699297 121.86855139 36.74584929 128.12890625 36.79101562 C140.41920409 36.87719369 152.70952815 36.94447435 165 37 C163.56081071 40.7316959 161.93066766 43.82094679 159.6640625 47.125 C159.01179687 48.07890625 158.35953125 49.0328125 157.6875 50.015625 C157.006875 51.00046875 156.32625 51.9853125 155.625 53 C154.95210937 53.98484375 154.27921875 54.9696875 153.5859375 55.984375 C151.74188388 58.67059485 149.89944554 61.35263168 148 64 C147.42774689 64.86501633 146.85549377 65.73003265 146.26589966 66.6212616 C144 69 144 69 141.20318604 69.60127258 C140.12841003 69.59016953 139.05363403 69.57906647 137.94628906 69.56762695 C136.11484344 69.56706047 136.11484344 69.56706047 134.24639893 69.56648254 C132.93274353 69.54067612 131.61908813 69.51486969 130.265625 69.48828125 C128.90372008 69.47895112 127.54179833 69.47183594 126.17987061 69.46684265 C122.60212549 69.44778774 119.02540173 69.39870266 115.44805908 69.34332275 C111.79494035 69.29209611 108.14165593 69.26932149 104.48828125 69.24414062 C97.32505612 69.19058013 90.16267138 69.10528846 83 69 C83.33 69.99 83.66 70.98 84 72 C102.48 72 120.96 72 140 72 C137.98258501 77.04353748 135.66993337 80.38607854 132.3527832 84.60766602 C130.63139006 86.92890759 129.44103236 89.15381236 128.34643555 91.82446289 C126.31446937 96.34182826 124.13995469 100.13327598 120 103 C112.32740737 105.4217869 104.08382617 104.94538355 96.1315918 104.6809082 C92.3083194 104.56237038 88.50238905 104.57815146 84.67773438 104.61132812 C82.23947976 104.58345201 79.80129819 104.54790706 77.36328125 104.50390625 C76.22772293 104.50846329 75.09216461 104.51302032 73.92219543 104.51771545 C66.20042381 104.1732356 66.20042381 104.1732356 62.7713623 100.82183838 C60.97303835 98.2837804 59.45927593 95.74437698 58 93 C57.13039428 91.59138487 56.25431035 90.18671187 55.3671875 88.7890625 C54.53402755 87.40249938 53.70336517 86.01443295 52.875 84.625 C48.92813039 78.08797568 44.86727323 71.64055194 40.6875 65.25 C36.14159196 58.29929919 31.63879384 51.32421686 27.1875 44.3125 C21.92987682 36.03317725 16.65987476 27.76194657 11.375 19.5 C10.69977295 18.44337158 10.0245459 17.38674316 9.32885742 16.2980957 C8.37329956 14.80475708 8.37329956 14.80475708 7.3984375 13.28125 C6.80643555 12.35570312 6.21443359 11.43015625 5.60449219 10.4765625 C4.27869006 8.43016312 2.92230964 6.41383743 1.5390625 4.40625 C0 2 0 2 0 0 Z " fill="#00CD86" transform="translate(41,45)"/>
<path d="M0 0 C1.59752849 0.00031727 3.19507824 0.01165096 4.79248047 0.03173828 C5.63310028 0.03456818 6.47372009 0.03739807 7.33981323 0.04031372 C10.02990843 0.05152648 12.71967307 0.07663275 15.40966797 0.10205078 C17.23127775 0.11207918 19.05289274 0.12120527 20.87451172 0.12939453 C25.34469155 0.15146937 29.81462368 0.18600644 34.28466797 0.22705078 C33.01891046 2.8710374 31.6479151 5.27572656 29.95654297 7.66845703 C29.4938501 8.32450928 29.03115723 8.98056152 28.55444336 9.65649414 C28.05291748 10.36040283 27.5513916 11.06431152 27.03466797 11.78955078 C26.50671631 12.53406494 25.97876465 13.2785791 25.43481445 14.0456543 C20.8843604 20.4378479 16.23805298 26.75758426 11.57104492 33.06494141 C5.95007408 40.6634755 0.41535971 48.32240482 -5.10644531 55.99316406 C-7.80545331 59.74064862 -10.51072087 63.48360923 -13.21533203 67.22705078 C-14.29869507 68.72702932 -15.38202841 70.22702932 -16.46533203 71.72705078 C-22.96533203 80.72705078 -22.96533203 80.72705078 -24.59057617 82.97729492 C-25.67321457 84.47639528 -26.75573423 85.9755814 -27.83813477 87.47485352 C-30.55613026 91.23933246 -33.27621271 95.00226982 -36.00048828 98.76220703 C-41.41326002 106.23756188 -46.78903508 113.73463901 -52.09033203 121.28955078 C-56.14284964 127.06285608 -60.27654093 132.74108009 -64.71533203 138.22705078 C-68.82614852 136.85677862 -69.87566586 134.10625225 -71.97314453 130.54736328 C-76.10957703 123.73375732 -80.43146034 117.07308868 -84.89501953 110.46923828 C-85.52055725 109.54306702 -86.14609497 108.61689575 -86.79058838 107.66265869 C-88.72169012 104.80766307 -90.65589552 101.95478765 -92.59033203 99.10205078 C-93.90830236 97.15431137 -95.22601217 95.20639566 -96.54345703 93.25830078 C-98.39376791 90.52239757 -100.24443136 87.78674157 -102.09713745 85.05245972 C-103.16648348 83.47427186 -104.2344542 81.8951508 -105.30072021 80.31488037 C-106.19287458 78.99814722 -107.09162341 77.68583573 -107.99957275 76.37994385 C-110.71533203 72.4397657 -110.71533203 72.4397657 -110.71533203 70.22705078 C-105.45045298 69.953635 -100.18975602 69.75489704 -94.91943359 69.62280273 C-93.13028973 69.56771985 -91.3416359 69.49282006 -89.55419922 69.3972168 C-74.64780342 68.6203227 -74.64780342 68.6203227 -69.71142578 72.72460938 C-67.70358729 75.4853873 -66.10603258 78.11487986 -64.71533203 81.22705078 C-60.26967985 77.07169305 -56.77873926 72.45968641 -53.21533203 67.53955078 C-52.60367188 66.70230469 -51.99201172 65.86505859 -51.36181641 65.00244141 C-46.75388293 58.68610829 -42.17994554 52.34492061 -37.61181641 45.99975586 C-33.11182779 39.75513744 -28.54873923 33.55849987 -23.97216797 27.36987305 C-19.19288194 20.8985375 -14.47931802 14.38130113 -9.80126953 7.83642578 C-9.03943359 6.77488281 -9.03943359 6.77488281 -8.26220703 5.69189453 C-7.8171582 5.06919678 -7.37210937 4.44649902 -6.91357422 3.80493164 C-4.54507637 0.68602342 -4.13079152 0.25244028 0 0 Z " fill="#00CD86" transform="translate(217.71533203125,80.77294921875)"/>
</svg>
